# xmcd
#
# Track frame offsets: 
#        150
#        16635
#        29242
#        47122
#        60721
#        75982
#        90902
#        109531
#        131381
#        147189
#        163544
#        176604
#        194232
#        212881
#
# Disc length: 3015 seconds
#
# Revision: 0
# Processed by: cddbd v1.5.2PL0 Copyright (c) Steve Scherf et al.
# Submitted via: ExactAudioCopy v0.99pb5
#
DISCID=b80bc50e
DTITLE=Tupla-A - Rennosti T‰ysii
DYEAR=2005
DGENRE=Hip-Hop
TTITLE0=P‰iv‰ kerrallaan
TTITLE1=Yhes t‰‰ ilta
TTITLE2=M‰ ja mun biisi
TTITLE3=Tulin hoppiin (feat. Koira-Is‰)
TTITLE4=Mit‰ tapahtu sulle (feat. Wanda)
TTITLE5=Rennosti t‰ysii
TTITLE6=Turha olla h‰diss‰‰n (feat. H‰rtta)
TTITLE7=Aurinko paistaa (feat. Horoskooppi and Wanda)
TTITLE8=Kledit pois (feat. Hossni)
TTITLE9=Sit‰ mit‰ haluun
TTITLE10=Kaikille teille
TTITLE11=Hukun huntteihin (feat. Koira-Is‰)
TTITLE12=Pakkopullaa (feat. Tono Slono)
TTITLE13=Ymp‰ri Stadii
EXTD=
EXTT0=
EXTT1=
EXTT2=
EXTT3=
EXTT4=
EXTT5=
EXTT6=
EXTT7=
EXTT8=
EXTT9=
EXTT10=
EXTT11=
EXTT12=
EXTT13=
PLAYORDER=
